<svg viewBox="0 0 20 20" fill="none" xmlns="http://www.w3.org/2000/svg">
<path d="M9.875 3.02543C11.0707 3.02543 12.0431 3.9842 12.0431 5.16312C12.0431 6.3385 11.0707 7.29726 9.875 7.29726C8.67928 7.29726 7.70687 6.3385 7.70687 5.16312C7.70687 3.9842 8.67928 3.02543 9.875 3.02543ZM9.875 10.3227C12.7634 10.3227 15.1117 8.00746 15.1117 5.16312C15.1117 2.31524 12.7634 0 9.875 0C6.98655 0 4.64194 2.31524 4.64194 5.16312C4.64194 8.00746 6.98655 10.3227 9.875 10.3227ZM11.9927 14.5342C13.0588 14.2927 14.0852 13.8772 15.0324 13.2913C15.7491 12.8474 15.9652 11.9135 15.515 11.2069C15.0612 10.4967 14.1176 10.2836 13.3973 10.7311C11.2544 12.0591 8.4956 12.0591 6.34908 10.7311C5.63237 10.2836 4.68516 10.4967 4.23497 11.2069C3.78477 11.9135 4.00087 12.8474 4.71757 13.2913C5.66478 13.8772 6.69123 14.2927 7.75729 14.5342L4.82922 17.4176C4.23136 18.007 4.23136 18.9658 4.82922 19.5552C5.13175 19.85 5.52072 19.9991 5.91329 19.9991C6.30586 19.9991 6.69843 19.85 7.00096 19.5552L9.875 16.7216L12.7526 19.5552C13.3505 20.1483 14.3193 20.1483 14.9208 19.5552C15.5186 18.9658 15.5186 18.007 14.9208 17.4176L11.9927 14.5342Z" fill="currentColor"/>
</svg>
